<?xml version="1.0" encoding="UTF-8" standalone="no"?>
<svg xmlns="http://www.w3.org/2000/svg" viewBox="0 0 64 64" height="64" width="64"><path fill="#494e50" d="m 34,28 c -2,0 -2,4 0,4 l 16,0 c 2,0 2,-4 0,-4 z m 0,8 c -2,0 -2,4 0,4 l 16,0 c 2,0 2,-4 0,-4 z m 0,8 c -2,0 -2,4 0,4 l 16,0 c 2,0 2,-4 0,-4 z M 16,22 c 0,-5 4,-10 10,-10 l 30,0 0,-4 C 56,3 53,0 48,0 L 8,0 C 3,0 0,3 0,8 l 0,40 c 0,5 3,8 8,8 l 8,0 z m 12,-6 c -5,0 -8,3 -8,8 l 0,32 c 0,5 3,8 8,8 l 28,0 c 5,0 8,-3 8,-8 l 0,-32 c 0,-5 -3,-8 -8,-8 z m 0,8 28,0 0,32 -28,0 z"/></svg>
